<?xml version="1.0" standalone="no"?>
<!DOCTYPE svg PUBLIC "-//W3C//DTD SVG 20010904//EN"
 "http://www.w3.org/TR/2001/REC-SVG-20010904/DTD/svg10.dtd">
<svg version="1.0" xmlns="http://www.w3.org/2000/svg"
 width="256.000000pt" height="256.000000pt" viewBox="0 0 256.000000 256.000000"
 preserveAspectRatio="xMidYMid meet">
<metadata>
Created by potrace 1.11, written by Peter Selinger 2001-2013
</metadata>
<g transform="translate(0.000000,256.000000) scale(0.100000,-0.100000)"
fill="#000000" stroke="none">
<path d="M755 2397 c-45 -18 -59 -29 -86 -67 -22 -33 -24 -46 -29 -195 l-5
-160 -210 0 c-176 -1 -218 -4 -257 -18 -59 -23 -114 -77 -144 -141 l-24 -51 0
-696 c0 -791 -3 -757 80 -839 84 -85 4 -80 1200 -80 1196 0 1116 -5 1200 80
78 77 79 85 80 515 0 206 -2 386 -6 400 -7 29 -48 53 -82 47 -52 -8 -54 -21
-54 -426 -1 -407 -2 -416 -57 -453 -23 -16 -58 -18 -355 -21 l-329 -3 61 60
c144 143 206 289 206 486 0 208 -85 385 -249 518 -290 233 -732 177 -949 -122
-92 -126 -130 -243 -130 -396 0 -196 66 -351 208 -488 l60 -58 -330 3 c-356 3
-352 3 -392 60 -15 21 -17 78 -18 571 l-2 547 208 0 c195 0 209 1 234 21 33
26 36 77 6 104 -19 17 -42 19 -236 19 l-215 1 4 65 c6 80 20 111 60 135 27 16
58 18 284 19 242 1 254 2 273 22 20 19 21 32 22 200 0 98 5 187 10 197 8 16
42 17 487 17 515 0 492 2 505 -53 13 -55 86 -65 124 -18 20 26 7 99 -26 140
-58 73 -39 71 -597 70 -357 0 -509 -4 -530 -12z"/>
<path d="M968 2160 c-75 -10 -78 -19 -78 -204 0 -90 3 -172 6 -181 15 -38 47
-41 389 -39 182 1 333 2 338 3 4 0 16 10 27 21 18 18 20 33 20 190 0 161 -1
170 -22 190 -12 11 -36 20 -52 21 -220 3 -599 3 -628 -1z"/>
<path d="M1833 1972 c-49 -8 -68 -72 -34 -113 19 -23 19 -24 269 -24 178 -1
258 -5 280 -14 43 -18 71 -79 69 -151 l-2 -55 -214 -1 c-210 -1 -215 -2 -233
-24 -25 -30 -23 -72 5 -98 21 -20 32 -21 268 -22 168 0 255 3 272 11 41 19 50
56 45 186 -5 131 -19 173 -80 233 -68 69 -94 74 -373 75 -137 0 -260 -1 -272
-3z"/>
</g>
</svg>
